<!-- asset_id: AS2ModellingInMechanicsSVG-004 -->
<svg xmlns="http://www.w3.org/2000/svg" width="1200" height="560" viewBox="0 0 1200 560"><rect width="1200" height="560" fill="#fff"/><text x="600" y="55" text-anchor="middle" font-family="Arial" font-size="34" font-weight="700">Motion graphs</text><g transform="translate(90,115)"><text x="230" y="0" text-anchor="middle" font-family="Arial" font-size="27" font-weight="700">Displacement-time</text><line x1="70" y1="310" x2="430" y2="310" stroke="#222" stroke-width="4"/><line x1="70" y1="310" x2="70" y2="40" stroke="#222" stroke-width="4"/><polygon points="430,310 405,298 405,322" fill="#222"/><polygon points="70,40 58,65 82,65" fill="#222"/><text x="250" y="350" text-anchor="middle" font-family="Arial" font-size="20">time</text><text x="25" y="190" text-anchor="middle" font-family="Arial" font-size="20" transform="rotate(-90 25 190)">displacement</text><polyline points="80,300 175,155 260,155 395,300" fill="none" stroke="#4472c4" stroke-width="5"/><text x="270" y="105" font-family="Arial" font-size="22">gradient gives velocity</text></g><g transform="translate(680,115)"><text x="230" y="0" text-anchor="middle" font-family="Arial" font-size="27" font-weight="700">Velocity-time</text><line x1="70" y1="310" x2="430" y2="310" stroke="#222" stroke-width="4"/><line x1="70" y1="310" x2="70" y2="40" stroke="#222" stroke-width="4"/><polygon points="430,310 405,298 405,322" fill="#222"/><polygon points="70,40 58,65 82,65" fill="#222"/><text x="250" y="350" text-anchor="middle" font-family="Arial" font-size="20">time</text><text x="25" y="190" text-anchor="middle" font-family="Arial" font-size="20" transform="rotate(-90 25 190)">velocity</text><polygon points="80,300 230,135 380,300" fill="#d9e8ff" stroke="none"/><polyline points="80,300 230,135 380,300" fill="none" stroke="#4472c4" stroke-width="5"/><text x="215" y="92" font-family="Arial" font-size="22">gradient gives acceleration</text><text x="170" y="260" font-family="Arial" font-size="22">area gives distance</text></g></svg>
